<mxfile host="app.diagrams.net" modified="2022-09-30T14:18:50.028Z" agent="5.0 (Windows NT 10.0; Win64; x64) AppleWebKit/537.36 (KHTML, like Gecko) Chrome/104.0.5112.102 Safari/537.36 OPR/90.0.4480.84" etag="-ctD3GS0_oJNvogTdPGA" version="20.4.0" type="github">
  <diagram id="R2lEEEUBdFMjLlhIrx00" name="Page-1">
    <mxGraphModel dx="1952" dy="584" grid="1" gridSize="10" guides="1" tooltips="1" connect="1" arrows="1" fold="1" page="1" pageScale="1" pageWidth="850" pageHeight="1100" math="0" shadow="0" extFonts="Permanent Marker^https://fonts.googleapis.com/css?family=Permanent+Marker">
      <root>
        <mxCell id="0" />
        <mxCell id="1" parent="0" />
        <mxCell id="xJnIrRIf_URgN7wCy2Ms-1" value="NOTAÇÃO PETER CHEN" style="text;html=1;strokeColor=none;fillColor=none;align=left;verticalAlign=middle;whiteSpace=wrap;rounded=0;fontSize=24;" parent="1" vertex="1">
          <mxGeometry x="10" y="20" width="310" height="30" as="geometry" />
        </mxCell>
        <mxCell id="xJnIrRIf_URgN7wCy2Ms-2" value="" style="rounded=0;whiteSpace=wrap;html=1;fontSize=18;align=left;strokeWidth=2;" parent="1" vertex="1">
          <mxGeometry x="61.5" y="70" width="100" height="40" as="geometry" />
        </mxCell>
        <mxCell id="xJnIrRIf_URgN7wCy2Ms-3" value="&lt;font style=&quot;font-size: 14px;&quot;&gt;ENTIDADE&lt;/font&gt;" style="text;html=1;strokeColor=none;fillColor=none;align=left;verticalAlign=middle;whiteSpace=wrap;rounded=0;fontSize=14;fontStyle=1" parent="1" vertex="1">
          <mxGeometry x="171.5" y="80" width="100" height="20" as="geometry" />
        </mxCell>
        <mxCell id="xJnIrRIf_URgN7wCy2Ms-6" value="&lt;font style=&quot;font-size: 14px&quot;&gt;ENTIDADE FRACA&lt;/font&gt;" style="text;html=1;strokeColor=none;fillColor=none;align=left;verticalAlign=middle;whiteSpace=wrap;rounded=0;fontSize=14;fontStyle=1" parent="1" vertex="1">
          <mxGeometry x="171.5" y="140" width="140" height="20" as="geometry" />
        </mxCell>
        <mxCell id="xJnIrRIf_URgN7wCy2Ms-7" value="" style="shape=ext;margin=3;double=1;whiteSpace=wrap;html=1;align=center;rounded=0;shadow=0;glass=0;sketch=0;fontSize=14;strokeWidth=2;gradientColor=none;" parent="1" vertex="1">
          <mxGeometry x="61.5" y="130" width="100" height="40" as="geometry" />
        </mxCell>
        <mxCell id="xJnIrRIf_URgN7wCy2Ms-8" value="" style="shape=associativeEntity;whiteSpace=wrap;html=1;align=center;rounded=0;shadow=0;glass=0;sketch=0;fontSize=14;strokeWidth=2;gradientColor=none;" parent="1" vertex="1">
          <mxGeometry x="61.5" y="190" width="100" height="40" as="geometry" />
        </mxCell>
        <mxCell id="xJnIrRIf_URgN7wCy2Ms-9" value="&lt;font style=&quot;font-size: 14px&quot;&gt;ENTIDADE ASSOCIATIVA&lt;/font&gt;" style="text;html=1;strokeColor=none;fillColor=none;align=left;verticalAlign=middle;whiteSpace=wrap;rounded=0;fontSize=14;fontStyle=1" parent="1" vertex="1">
          <mxGeometry x="171.5" y="200" width="200" height="20" as="geometry" />
        </mxCell>
        <mxCell id="xJnIrRIf_URgN7wCy2Ms-10" value="" style="shape=rhombus;perimeter=rhombusPerimeter;whiteSpace=wrap;html=1;align=center;rounded=0;shadow=0;glass=0;sketch=0;fontSize=24;strokeWidth=2;gradientColor=none;" parent="1" vertex="1">
          <mxGeometry x="61.5" y="250" width="100" height="40" as="geometry" />
        </mxCell>
        <mxCell id="xJnIrRIf_URgN7wCy2Ms-11" value="RELACIONAMENTO" style="text;html=1;strokeColor=none;fillColor=none;align=left;verticalAlign=middle;whiteSpace=wrap;rounded=0;fontSize=14;fontStyle=1" parent="1" vertex="1">
          <mxGeometry x="171.5" y="260" width="200" height="20" as="geometry" />
        </mxCell>
        <mxCell id="xJnIrRIf_URgN7wCy2Ms-12" value="" style="shape=rhombus;double=1;perimeter=rhombusPerimeter;whiteSpace=wrap;html=1;align=center;rounded=0;shadow=0;glass=0;sketch=0;fontSize=24;strokeWidth=2;gradientColor=none;" parent="1" vertex="1">
          <mxGeometry x="61.5" y="310" width="100" height="40" as="geometry" />
        </mxCell>
        <mxCell id="xJnIrRIf_URgN7wCy2Ms-13" value="RELACIONAMENTO FRACO" style="text;html=1;strokeColor=none;fillColor=none;align=left;verticalAlign=middle;whiteSpace=wrap;rounded=0;fontSize=14;fontStyle=1" parent="1" vertex="1">
          <mxGeometry x="171.5" y="320" width="200" height="20" as="geometry" />
        </mxCell>
        <mxCell id="xJnIrRIf_URgN7wCy2Ms-14" value="" style="endArrow=none;html=1;rounded=0;fontSize=24;strokeWidth=2;" parent="1" edge="1">
          <mxGeometry relative="1" as="geometry">
            <mxPoint x="61.5" y="421" as="sourcePoint" />
            <mxPoint x="161.5" y="421" as="targetPoint" />
          </mxGeometry>
        </mxCell>
        <mxCell id="xJnIrRIf_URgN7wCy2Ms-15" value="1" style="resizable=0;html=1;align=right;verticalAlign=bottom;" parent="xJnIrRIf_URgN7wCy2Ms-14" connectable="0" vertex="1">
          <mxGeometry x="1" relative="1" as="geometry" />
        </mxCell>
        <mxCell id="xJnIrRIf_URgN7wCy2Ms-16" value="" style="endArrow=none;html=1;rounded=0;fontSize=24;strokeWidth=2;" parent="1" edge="1">
          <mxGeometry relative="1" as="geometry">
            <mxPoint x="61.5" y="441" as="sourcePoint" />
            <mxPoint x="161.5" y="441" as="targetPoint" />
          </mxGeometry>
        </mxCell>
        <mxCell id="xJnIrRIf_URgN7wCy2Ms-17" value="N" style="resizable=0;html=1;align=right;verticalAlign=bottom;" parent="xJnIrRIf_URgN7wCy2Ms-16" connectable="0" vertex="1">
          <mxGeometry x="1" relative="1" as="geometry" />
        </mxCell>
        <mxCell id="xJnIrRIf_URgN7wCy2Ms-18" value="CARDINALIDADE" style="text;html=1;strokeColor=none;fillColor=none;align=left;verticalAlign=middle;whiteSpace=wrap;rounded=0;fontSize=14;fontStyle=1" parent="1" vertex="1">
          <mxGeometry x="171.5" y="418" width="200" height="20" as="geometry" />
        </mxCell>
        <mxCell id="xJnIrRIf_URgN7wCy2Ms-19" value="" style="shape=link;html=1;rounded=0;fontSize=24;strokeWidth=2;" parent="1" edge="1">
          <mxGeometry relative="1" as="geometry">
            <mxPoint x="61.5" y="471" as="sourcePoint" />
            <mxPoint x="161.5" y="471" as="targetPoint" />
          </mxGeometry>
        </mxCell>
        <mxCell id="xJnIrRIf_URgN7wCy2Ms-21" value="PARTICIPAÇÃO TOTAL" style="text;html=1;strokeColor=none;fillColor=none;align=left;verticalAlign=middle;whiteSpace=wrap;rounded=0;fontSize=14;fontStyle=1" parent="1" vertex="1">
          <mxGeometry x="171.5" y="460" width="200" height="20" as="geometry" />
        </mxCell>
        <mxCell id="xJnIrRIf_URgN7wCy2Ms-22" value="" style="ellipse;whiteSpace=wrap;html=1;align=center;rounded=0;shadow=0;glass=0;sketch=0;fontSize=24;strokeWidth=2;gradientColor=none;" parent="1" vertex="1">
          <mxGeometry x="440" y="70" width="100" height="40" as="geometry" />
        </mxCell>
        <mxCell id="xJnIrRIf_URgN7wCy2Ms-23" value="&amp;nbsp; &amp;nbsp; &amp;nbsp; &amp;nbsp; &amp;nbsp;&amp;nbsp;" style="ellipse;whiteSpace=wrap;html=1;align=center;fontStyle=4;rounded=0;shadow=0;glass=0;sketch=0;fontSize=24;strokeWidth=2;gradientColor=none;" parent="1" vertex="1">
          <mxGeometry x="440" y="130" width="100" height="40" as="geometry" />
        </mxCell>
        <mxCell id="xJnIrRIf_URgN7wCy2Ms-24" value="" style="ellipse;whiteSpace=wrap;html=1;align=center;dashed=1;rounded=0;shadow=0;glass=0;sketch=0;fontSize=24;strokeWidth=2;gradientColor=none;" parent="1" vertex="1">
          <mxGeometry x="440" y="190" width="100" height="40" as="geometry" />
        </mxCell>
        <mxCell id="xJnIrRIf_URgN7wCy2Ms-25" value="" style="ellipse;shape=doubleEllipse;margin=3;whiteSpace=wrap;html=1;align=center;rounded=0;shadow=0;glass=0;sketch=0;fontSize=24;strokeWidth=2;gradientColor=none;" parent="1" vertex="1">
          <mxGeometry x="440" y="250" width="100" height="40" as="geometry" />
        </mxCell>
        <mxCell id="xJnIrRIf_URgN7wCy2Ms-30" style="edgeStyle=orthogonalEdgeStyle;rounded=0;orthogonalLoop=1;jettySize=auto;html=1;entryX=0.5;entryY=0;entryDx=0;entryDy=0;fontSize=24;strokeWidth=2;endArrow=none;endFill=0;" parent="1" source="xJnIrRIf_URgN7wCy2Ms-26" target="xJnIrRIf_URgN7wCy2Ms-27" edge="1">
          <mxGeometry relative="1" as="geometry" />
        </mxCell>
        <mxCell id="xJnIrRIf_URgN7wCy2Ms-31" style="rounded=0;orthogonalLoop=1;jettySize=auto;html=1;entryX=0;entryY=0;entryDx=0;entryDy=0;fontSize=24;endArrow=none;endFill=0;strokeWidth=2;" parent="1" source="xJnIrRIf_URgN7wCy2Ms-26" target="xJnIrRIf_URgN7wCy2Ms-28" edge="1">
          <mxGeometry relative="1" as="geometry" />
        </mxCell>
        <mxCell id="xJnIrRIf_URgN7wCy2Ms-32" style="edgeStyle=none;rounded=0;orthogonalLoop=1;jettySize=auto;html=1;entryX=0;entryY=0;entryDx=0;entryDy=0;fontSize=24;endArrow=none;endFill=0;strokeWidth=2;" parent="1" source="xJnIrRIf_URgN7wCy2Ms-26" target="xJnIrRIf_URgN7wCy2Ms-29" edge="1">
          <mxGeometry relative="1" as="geometry" />
        </mxCell>
        <mxCell id="xJnIrRIf_URgN7wCy2Ms-26" value="" style="ellipse;whiteSpace=wrap;html=1;align=center;rounded=0;shadow=0;glass=0;sketch=0;fontSize=24;strokeWidth=2;gradientColor=none;" parent="1" vertex="1">
          <mxGeometry x="440" y="310" width="100" height="40" as="geometry" />
        </mxCell>
        <mxCell id="xJnIrRIf_URgN7wCy2Ms-27" value="" style="ellipse;whiteSpace=wrap;html=1;align=center;rounded=0;shadow=0;glass=0;sketch=0;fontSize=24;strokeWidth=2;gradientColor=none;" parent="1" vertex="1">
          <mxGeometry x="440" y="380" width="100" height="40" as="geometry" />
        </mxCell>
        <mxCell id="xJnIrRIf_URgN7wCy2Ms-28" value="" style="ellipse;whiteSpace=wrap;html=1;align=center;rounded=0;shadow=0;glass=0;sketch=0;fontSize=24;strokeWidth=2;gradientColor=none;" parent="1" vertex="1">
          <mxGeometry x="560" y="380" width="100" height="40" as="geometry" />
        </mxCell>
        <mxCell id="xJnIrRIf_URgN7wCy2Ms-29" value="" style="ellipse;whiteSpace=wrap;html=1;align=center;rounded=0;shadow=0;glass=0;sketch=0;fontSize=24;strokeWidth=2;gradientColor=none;" parent="1" vertex="1">
          <mxGeometry x="710" y="380" width="100" height="40" as="geometry" />
        </mxCell>
        <mxCell id="xJnIrRIf_URgN7wCy2Ms-33" value="&lt;font style=&quot;font-size: 14px&quot;&gt;ATRIBUTO&lt;/font&gt;" style="text;html=1;strokeColor=none;fillColor=none;align=left;verticalAlign=middle;whiteSpace=wrap;rounded=0;fontSize=14;fontStyle=1" parent="1" vertex="1">
          <mxGeometry x="560" y="80" width="100" height="20" as="geometry" />
        </mxCell>
        <mxCell id="xJnIrRIf_URgN7wCy2Ms-34" value="&lt;font style=&quot;font-size: 14px&quot;&gt;ATRIBUTO CHAVE&lt;/font&gt;" style="text;html=1;strokeColor=none;fillColor=none;align=left;verticalAlign=middle;whiteSpace=wrap;rounded=0;fontSize=14;fontStyle=1" parent="1" vertex="1">
          <mxGeometry x="560" y="140" width="160" height="20" as="geometry" />
        </mxCell>
        <mxCell id="xJnIrRIf_URgN7wCy2Ms-35" value="&lt;font style=&quot;font-size: 14px&quot;&gt;ATRIBUTO DERIVADO&lt;/font&gt;" style="text;html=1;strokeColor=none;fillColor=none;align=left;verticalAlign=middle;whiteSpace=wrap;rounded=0;fontSize=14;fontStyle=1" parent="1" vertex="1">
          <mxGeometry x="560" y="200" width="160" height="20" as="geometry" />
        </mxCell>
        <mxCell id="xJnIrRIf_URgN7wCy2Ms-36" value="&lt;font style=&quot;font-size: 14px&quot;&gt;ATRIBUTO MULTIVALORADO&lt;/font&gt;" style="text;html=1;strokeColor=none;fillColor=none;align=left;verticalAlign=middle;whiteSpace=wrap;rounded=0;fontSize=14;fontStyle=1" parent="1" vertex="1">
          <mxGeometry x="560" y="260" width="200" height="20" as="geometry" />
        </mxCell>
        <mxCell id="xJnIrRIf_URgN7wCy2Ms-37" value="&lt;font style=&quot;font-size: 14px&quot;&gt;ATRIBUTO COMPOSTO&lt;/font&gt;" style="text;html=1;strokeColor=none;fillColor=none;align=left;verticalAlign=middle;whiteSpace=wrap;rounded=0;fontSize=14;fontStyle=1" parent="1" vertex="1">
          <mxGeometry x="560" y="310" width="200" height="20" as="geometry" />
        </mxCell>
        <mxCell id="xJnIrRIf_URgN7wCy2Ms-38" value="&lt;font style=&quot;font-size: 14px&quot;&gt;...&lt;/font&gt;" style="text;html=1;strokeColor=none;fillColor=none;align=left;verticalAlign=middle;whiteSpace=wrap;rounded=0;fontSize=14;fontStyle=1" parent="1" vertex="1">
          <mxGeometry x="670" y="390" width="20" height="20" as="geometry" />
        </mxCell>
        <mxCell id="xJnIrRIf_URgN7wCy2Ms-67" value="EMPRESA DE ESTASSIONAMENTO" style="text;html=1;strokeColor=none;fillColor=none;align=left;verticalAlign=middle;whiteSpace=wrap;rounded=0;fontSize=24;" parent="1" vertex="1">
          <mxGeometry x="10" y="535" width="640" height="30" as="geometry" />
        </mxCell>
        <mxCell id="xJnIrRIf_URgN7wCy2Ms-68" value="" style="triangle;whiteSpace=wrap;html=1;rounded=0;shadow=0;glass=0;sketch=0;fontSize=12;strokeWidth=2;gradientColor=none;align=right;rotation=270;" parent="1" vertex="1">
          <mxGeometry x="96.5" y="360" width="30" height="40" as="geometry" />
        </mxCell>
        <mxCell id="xJnIrRIf_URgN7wCy2Ms-69" value="ESPECIALIZAÇÃO" style="text;html=1;strokeColor=none;fillColor=none;align=left;verticalAlign=middle;whiteSpace=wrap;rounded=0;fontSize=14;fontStyle=1" parent="1" vertex="1">
          <mxGeometry x="171.5" y="370" width="200" height="20" as="geometry" />
        </mxCell>
        <mxCell id="EIZiA-yq2A_t27IuTZh9-1" value="VAGA" style="whiteSpace=wrap;html=1;" parent="1" vertex="1">
          <mxGeometry x="561.5" y="650" width="120" height="60" as="geometry" />
        </mxCell>
        <mxCell id="EIZiA-yq2A_t27IuTZh9-3" value="ALUGA" style="rhombus;whiteSpace=wrap;html=1;" parent="1" vertex="1">
          <mxGeometry x="350" y="650" width="100" height="60" as="geometry" />
        </mxCell>
        <mxCell id="EIZiA-yq2A_t27IuTZh9-4" value="CLIENTE" style="whiteSpace=wrap;html=1;" parent="1" vertex="1">
          <mxGeometry x="120" y="650" width="120" height="60" as="geometry" />
        </mxCell>
        <mxCell id="EIZiA-yq2A_t27IuTZh9-5" value="AVULSO" style="whiteSpace=wrap;html=1;" parent="1" vertex="1">
          <mxGeometry x="270" y="840" width="120" height="60" as="geometry" />
        </mxCell>
        <mxCell id="EIZiA-yq2A_t27IuTZh9-6" value="MENSALISTA" style="whiteSpace=wrap;html=1;" parent="1" vertex="1">
          <mxGeometry x="-30" y="840" width="120" height="60" as="geometry" />
        </mxCell>
        <mxCell id="EIZiA-yq2A_t27IuTZh9-7" value="" style="verticalLabelPosition=bottom;verticalAlign=top;html=1;shape=mxgraph.basic.acute_triangle;dx=0.5;" parent="1" vertex="1">
          <mxGeometry x="155" y="750" width="50" height="40" as="geometry" />
        </mxCell>
        <mxCell id="EIZiA-yq2A_t27IuTZh9-8" value="" style="endArrow=none;html=1;rounded=0;exitX=0;exitY=0;exitDx=25;exitDy=0;exitPerimeter=0;" parent="1" source="EIZiA-yq2A_t27IuTZh9-7" target="EIZiA-yq2A_t27IuTZh9-4" edge="1">
          <mxGeometry width="50" height="50" relative="1" as="geometry">
            <mxPoint x="281.5" y="760" as="sourcePoint" />
            <mxPoint x="331.5" y="710" as="targetPoint" />
          </mxGeometry>
        </mxCell>
        <mxCell id="EIZiA-yq2A_t27IuTZh9-9" value="" style="endArrow=none;html=1;rounded=0;exitX=0;exitY=1;exitDx=0;exitDy=0;exitPerimeter=0;" parent="1" source="EIZiA-yq2A_t27IuTZh9-7" target="EIZiA-yq2A_t27IuTZh9-6" edge="1">
          <mxGeometry width="50" height="50" relative="1" as="geometry">
            <mxPoint x="291.5" y="770" as="sourcePoint" />
            <mxPoint x="341.5" y="720" as="targetPoint" />
          </mxGeometry>
        </mxCell>
        <mxCell id="EIZiA-yq2A_t27IuTZh9-10" value="" style="endArrow=none;html=1;rounded=0;exitX=1;exitY=1;exitDx=0;exitDy=0;exitPerimeter=0;" parent="1" source="EIZiA-yq2A_t27IuTZh9-7" target="EIZiA-yq2A_t27IuTZh9-5" edge="1">
          <mxGeometry width="50" height="50" relative="1" as="geometry">
            <mxPoint x="270" y="790" as="sourcePoint" />
            <mxPoint x="351.5" y="730" as="targetPoint" />
          </mxGeometry>
        </mxCell>
        <mxCell id="EIZiA-yq2A_t27IuTZh9-11" value="" style="endArrow=none;html=1;rounded=0;" parent="1" source="EIZiA-yq2A_t27IuTZh9-3" target="EIZiA-yq2A_t27IuTZh9-4" edge="1">
          <mxGeometry width="50" height="50" relative="1" as="geometry">
            <mxPoint x="311.5" y="790" as="sourcePoint" />
            <mxPoint x="361.5" y="740" as="targetPoint" />
          </mxGeometry>
        </mxCell>
        <mxCell id="EIZiA-yq2A_t27IuTZh9-12" value="" style="endArrow=none;html=1;rounded=0;" parent="1" source="EIZiA-yq2A_t27IuTZh9-3" target="EIZiA-yq2A_t27IuTZh9-1" edge="1">
          <mxGeometry width="50" height="50" relative="1" as="geometry">
            <mxPoint x="321.5" y="800" as="sourcePoint" />
            <mxPoint x="371.5" y="750" as="targetPoint" />
          </mxGeometry>
        </mxCell>
        <mxCell id="EIZiA-yq2A_t27IuTZh9-23" value="" style="endArrow=none;html=1;rounded=0;" parent="1" source="EIZiA-yq2A_t27IuTZh9-1" target="EIZiA-yq2A_t27IuTZh9-13" edge="1">
          <mxGeometry width="50" height="50" relative="1" as="geometry">
            <mxPoint x="530" y="730" as="sourcePoint" />
            <mxPoint x="490" y="790" as="targetPoint" />
          </mxGeometry>
        </mxCell>
        <mxCell id="EIZiA-yq2A_t27IuTZh9-24" value="" style="endArrow=none;html=1;rounded=0;" parent="1" source="EIZiA-yq2A_t27IuTZh9-1" target="EIZiA-yq2A_t27IuTZh9-17" edge="1">
          <mxGeometry width="50" height="50" relative="1" as="geometry">
            <mxPoint x="540" y="740" as="sourcePoint" />
            <mxPoint x="570" y="760" as="targetPoint" />
          </mxGeometry>
        </mxCell>
        <mxCell id="EIZiA-yq2A_t27IuTZh9-27" value="" style="group" parent="1" vertex="1" connectable="0">
          <mxGeometry x="575" y="780" width="160" height="30" as="geometry" />
        </mxCell>
        <mxCell id="EIZiA-yq2A_t27IuTZh9-13" value="" style="ellipse;whiteSpace=wrap;html=1;align=center;" parent="EIZiA-yq2A_t27IuTZh9-27" vertex="1">
          <mxGeometry y="5" width="30" height="20" as="geometry" />
        </mxCell>
        <mxCell id="EIZiA-yq2A_t27IuTZh9-14" value="&lt;u&gt;Nº IDENTIFICADOR&lt;/u&gt;" style="text;html=1;align=left;verticalAlign=middle;resizable=0;points=[];autosize=1;strokeColor=none;fillColor=none;" parent="EIZiA-yq2A_t27IuTZh9-27" vertex="1">
          <mxGeometry x="30" width="130" height="30" as="geometry" />
        </mxCell>
        <mxCell id="EIZiA-yq2A_t27IuTZh9-28" value="" style="group" parent="1" vertex="1" connectable="0">
          <mxGeometry x="630" y="750" width="100" height="30" as="geometry" />
        </mxCell>
        <mxCell id="EIZiA-yq2A_t27IuTZh9-17" value="" style="ellipse;whiteSpace=wrap;html=1;align=center;" parent="EIZiA-yq2A_t27IuTZh9-28" vertex="1">
          <mxGeometry y="5" width="30" height="20" as="geometry" />
        </mxCell>
        <mxCell id="EIZiA-yq2A_t27IuTZh9-18" value="STATUS" style="text;html=1;align=left;verticalAlign=middle;resizable=0;points=[];autosize=1;strokeColor=none;fillColor=none;" parent="EIZiA-yq2A_t27IuTZh9-28" vertex="1">
          <mxGeometry x="30" width="70" height="30" as="geometry" />
        </mxCell>
        <mxCell id="EIZiA-yq2A_t27IuTZh9-29" value="" style="group" parent="1" vertex="1" connectable="0">
          <mxGeometry x="-30" y="920" width="90" height="30" as="geometry" />
        </mxCell>
        <mxCell id="EIZiA-yq2A_t27IuTZh9-21" value="" style="ellipse;whiteSpace=wrap;html=1;align=center;" parent="EIZiA-yq2A_t27IuTZh9-29" vertex="1">
          <mxGeometry y="5" width="30" height="20" as="geometry" />
        </mxCell>
        <mxCell id="EIZiA-yq2A_t27IuTZh9-22" value="NOME" style="text;html=1;align=left;verticalAlign=middle;resizable=0;points=[];autosize=1;strokeColor=none;fillColor=none;" parent="EIZiA-yq2A_t27IuTZh9-29" vertex="1">
          <mxGeometry x="30" width="60" height="30" as="geometry" />
        </mxCell>
        <mxCell id="FJoEXb9-_RkG0g2eSgKD-1" value="" style="group" vertex="1" connectable="0" parent="1">
          <mxGeometry x="-10" y="960" width="90" height="30" as="geometry" />
        </mxCell>
        <mxCell id="FJoEXb9-_RkG0g2eSgKD-2" value="" style="ellipse;whiteSpace=wrap;html=1;align=center;" vertex="1" parent="FJoEXb9-_RkG0g2eSgKD-1">
          <mxGeometry y="5" width="30" height="20" as="geometry" />
        </mxCell>
        <mxCell id="FJoEXb9-_RkG0g2eSgKD-3" value="VAGA" style="text;html=1;align=left;verticalAlign=middle;resizable=0;points=[];autosize=1;strokeColor=none;fillColor=none;" vertex="1" parent="FJoEXb9-_RkG0g2eSgKD-1">
          <mxGeometry x="30" width="60" height="30" as="geometry" />
        </mxCell>
        <mxCell id="FJoEXb9-_RkG0g2eSgKD-5" value="" style="group" vertex="1" connectable="0" parent="1">
          <mxGeometry x="100" y="940" width="150" height="30" as="geometry" />
        </mxCell>
        <mxCell id="FJoEXb9-_RkG0g2eSgKD-6" value="" style="ellipse;whiteSpace=wrap;html=1;align=center;" vertex="1" parent="FJoEXb9-_RkG0g2eSgKD-5">
          <mxGeometry y="5" width="30" height="20" as="geometry" />
        </mxCell>
        <mxCell id="FJoEXb9-_RkG0g2eSgKD-7" value="HORA ENTRADA" style="text;html=1;align=left;verticalAlign=middle;resizable=0;points=[];autosize=1;strokeColor=none;fillColor=none;" vertex="1" parent="FJoEXb9-_RkG0g2eSgKD-5">
          <mxGeometry x="30" width="120" height="30" as="geometry" />
        </mxCell>
        <mxCell id="FJoEXb9-_RkG0g2eSgKD-8" value="" style="group" vertex="1" connectable="0" parent="1">
          <mxGeometry x="110" y="990" width="130" height="30" as="geometry" />
        </mxCell>
        <mxCell id="FJoEXb9-_RkG0g2eSgKD-9" value="" style="ellipse;whiteSpace=wrap;html=1;align=center;" vertex="1" parent="FJoEXb9-_RkG0g2eSgKD-8">
          <mxGeometry y="5" width="30" height="20" as="geometry" />
        </mxCell>
        <mxCell id="FJoEXb9-_RkG0g2eSgKD-10" value="HORA SAÍDA" style="text;html=1;align=left;verticalAlign=middle;resizable=0;points=[];autosize=1;strokeColor=none;fillColor=none;" vertex="1" parent="FJoEXb9-_RkG0g2eSgKD-8">
          <mxGeometry x="30" width="100" height="30" as="geometry" />
        </mxCell>
        <mxCell id="FJoEXb9-_RkG0g2eSgKD-13" value="" style="group" vertex="1" connectable="0" parent="1">
          <mxGeometry x="-10" y="1010" width="90" height="30" as="geometry" />
        </mxCell>
        <mxCell id="FJoEXb9-_RkG0g2eSgKD-14" value="" style="ellipse;whiteSpace=wrap;html=1;align=center;" vertex="1" parent="FJoEXb9-_RkG0g2eSgKD-13">
          <mxGeometry y="5" width="30" height="20" as="geometry" />
        </mxCell>
        <mxCell id="FJoEXb9-_RkG0g2eSgKD-15" value="VALOR" style="text;html=1;align=left;verticalAlign=middle;resizable=0;points=[];autosize=1;strokeColor=none;fillColor=none;" vertex="1" parent="FJoEXb9-_RkG0g2eSgKD-13">
          <mxGeometry x="30" width="60" height="30" as="geometry" />
        </mxCell>
        <mxCell id="FJoEXb9-_RkG0g2eSgKD-16" value="t" style="text;html=1;align=center;verticalAlign=middle;resizable=0;points=[];autosize=1;strokeColor=none;fillColor=none;" vertex="1" parent="1">
          <mxGeometry x="175" y="735" width="30" height="30" as="geometry" />
        </mxCell>
      </root>
    </mxGraphModel>
  </diagram>
</mxfile>
